Patient4_TMGait_0pt4_01_left_25_EMG.mot
version=1
nRows=40
nColumns=33
inDegrees=no
endheader
time	1LAddLong	2LGlutMax	3LGlutMed	4LIliopsoas	5LSemiMemb	6LBicFemLong	7LRecFem	8LVastMed	9LVastLat	10LGasMed	11LTibAnt	12lTibPost	13LPeroneusLong	14LSol	15LExtDigLong	16LFlexDigLong	17RAddLong	18RGlutMax	19RGlutMed	20RIliopsoas	21RSemiMemb	22RBicFemLong	23RRecFem	24RVastMed	25RVastLat	26RGasMed	27RTibAnt	28RTibPost	29RPeroneusLong	30RSol	31RExtDigLong	32RFlexDigLong
30.677	0.013428	-0.069427	-0.063934	0.004272	0.036774	0.23605	-0.052948	-0.006561	0.005646	-0.019684	-0.033569	0.02655	-0.060272	0.11963	0.009918	0.020294	-0.042725	0.77209	-0.34973	-0.03418	-0.073242	-0.029449	0.43976	-0.13626	-0.033569	-0.001221	0.10346	-0.007782	0.021667	-0.054474	0.00061	-0.021515
30.678	0.009918	-0.095215	-0.062714	0.001984	0.006104	0.19089	-0.044098	-0.010376	0.038605	-0.012817	-0.011902	0.022736	-0.062561	0.079803	0.034027	0.017395	-0.028381	0.69717	-0.32364	-0.08606	-0.07782	-0.054016	0.42252	-0.16464	-0.03006	0.006561	-0.032501	-0.005798	0.071106	-0.054169	0.001221	-0.022888
30.679	-0.001526	-0.02121	-0.049133	-0.003357	-0.011292	0.1799	-0.12741	-0.005035	0.055084	-0.016327	0.042725	0.03418	-0.067596	0.071716	0.10941	0.002441	-0.00946	0.71732	-0.34103	-0.12436	-0.08316	-0.076294	0.40848	-0.10666	-0.031586	-0.002899	-0.041504	-0.009918	0.06134	-0.06958	-0.007019	-0.018768
30.68	-0.000916	-0.002136	-0.040283	-0.003662	-0.03067	0.12817	-0.26138	0.037384	0.002441	-0.009918	0.070953	0.040588	-0.04837	0.035858	0.078888	-0.002747	0.029602	0.65445	-0.25024	-0.059052	-0.077515	-0.09552	0.38406	-0.068359	-0.031738	-0.002747	-0.032196	-0.006256	0.046692	-0.044403	-0.000305	-0.027771
30.681	-0.007019	-0.028992	-0.085144	0.011139	-0.065155	-0.035095	-0.383	0.038452	-0.112	-0.010071	0.056458	0.031433	0.019836	0.049286	0.10346	0.003662	0.070648	0.5835	-0.11307	0.07782	-0.093384	-0.062866	0.41321	-0.069427	-0.032349	0.001678	0.06546	-0.003967	-0.050354	-0.06958	-0.001526	-0.02243
30.682	-0.013275	-0.011749	-0.13641	0.007477	-0.059662	-0.37643	-0.33478	0.014343	-0.16022	-0.024719	0.097351	0.031281	0.15732	0.061035	0.51727	-0.004578	0.070038	0.48874	-0.26977	0.1976	-0.11383	-0.053864	0.40848	-0.13001	-0.032196	0.009155	0.055389	-0.005798	-0.060577	-0.098419	-0.004578	-0.013885
30.683	-0.010834	0.017548	-0.032654	0.01297	-0.071106	-0.17273	-0.25116	-0.005951	-0.24139	0.001984	0.16968	0.031891	0.1506	0.063019	0.13672	-0.016632	0.057526	0.33127	-0.25803	0.18494	-0.14526	-0.033722	0.38391	-0.091858	-0.030518	0.011749	0.21194	-0.008087	-0.087738	-0.14862	-0.002441	-0.016479
30.684	-0.006409	0.076447	0.096436	0.001373	-0.058746	0.017242	-0.19196	-0.026093	-0.31067	0.016174	0.15625	0.028229	0.1648	0.052185	0.056305	-0.013123	0.035706	0.19943	-0.26504	0.13046	-0.13321	-0.033417	0.36133	-0.065002	-0.020447	0.001068	0.26154	-0.00824	-0.16129	-0.13489	0.001221	-0.014038
30.685	0.001984	0.068512	0.12116	0.005341	-0.05661	0.023804	-0.16464	-0.050812	-0.23102	-0.006866	0.001373	0.035248	0.45197	0.038757	-0.26047	-0.01236	0.034637	0.14038	-0.23972	0.035095	-0.11505	-0.046234	0.39566	-0.061493	-0.023193	-0.000305	0.12985	-0.017853	-0.16281	-0.045471	-0.003815	-0.022125
30.686	0.007019	0.055847	-0.01709	-0.018311	0.054779	-0.058289	-0.035706	-0.036774	-0.16892	-0.032196	-0.13657	0.038605	0.6308	0.076141	-0.3392	-0.021515	0.006256	0.044098	-0.1622	-0.009766	-0.10452	-0.027771	0.38422	-0.037994	-0.036621	0.000305	0.010986	-0.009003	-0.14633	-0.044098	0	-0.014496
30.687	0.01297	0.028839	-0.069733	-0.027161	0.079651	-0.065002	0.023956	-0.009155	-0.091553	-0.044556	-0.25223	0.030518	0.56976	0.13748	-0.067291	-0.022888	-0.003204	-0.11673	0.032043	-0.020142	-0.089569	-0.019531	0.33341	-0.000305	-0.020752	0.000916	-0.075836	-0.006714	-0.050201	0.017548	-0.001678	-0.015259
30.688	0.018005	0.015869	-0.13992	-0.015411	0.046692	-0.038147	-0.059662	-0.007782	-0.012207	-0.058594	-0.21759	0.035553	0.000305	0.18234	-0.18829	-0.014038	-0.003052	-0.23682	-0.14435	0.022888	-0.066986	-0.011597	0.32303	-0.025177	-0.008392	0.006866	-0.090332	-0.011749	0.030823	-0.014648	-0.001373	-0.012817
30.689	0.034027	0.067902	-0.26306	0.030212	0.00946	-0.13275	-0.23895	-0.012665	0.096893	-0.090027	-0.17151	0.027008	-0.51376	0.23193	-0.24597	-0.007935	0.00473	-0.33402	-0.3981	0.077209	-0.059967	-0.005493	0.33951	-0.011139	-0.006409	-0.001068	0.062866	-0.005798	-0.010834	-0.013885	-0.00412	-0.020752
30.69	0.032806	0.14023	-0.11536	0.032349	0.049744	-0.24277	-0.37354	-0.023041	0.15839	-0.036621	-0.10559	0.036774	-0.60043	0.069885	-0.26337	-0.019836	0.014191	-0.43716	-0.39841	0.12314	-0.063324	-0.00824	0.34058	0.011597	-0.020447	-0.00061	0.068665	-0.006409	-0.037384	0.016479	-0.002289	-0.016174
30.691	0.021515	0.1384	0.27008	0.015106	0.078125	-0.30426	-0.34515	0.000458	0.038605	-0.001526	0.0354	0.013275	-0.22949	0.027618	-0.19058	-0.011292	0.009918	-0.41763	-0.25482	0.13626	-0.056	-0.004425	0.34958	0.003204	-0.01709	-0.00824	0.071564	-0.009766	-0.034027	0.023804	0	-0.018921
30.692	-0.01236	0.15015	0.21515	0.014191	0.016785	-0.23209	-0.27496	0.005493	-0.088043	-0.022736	0.11383	0.014496	0.26443	-0.009918	-0.10773	-0.007477	-0.009003	-0.42633	-0.345	-0.003967	-0.055695	0.000763	0.37445	-0.031128	-0.016632	0.009155	0.036926	-0.005341	-0.068817	-0.004272	-0.009613	-0.007019
30.693	-0.017242	0.15717	0.13947	0.024719	-0.036011	-0.21362	-0.2507	-0.00061	-0.075073	-0.010071	0.018311	0.012817	0.15579	-0.041199	-0.079498	-0.016022	-0.028687	-0.37415	-0.25925	-0.10254	-0.055847	-0.000305	0.3688	0.014954	0.005341	-0.001831	0.043182	-0.009308	-0.077362	-0.025787	0	-0.024872
30.694	0.001526	0.21683	0.14481	0.017548	-0.04837	-0.11108	-0.25009	0.001068	-0.078125	-0.002136	0.003052	0.012512	0.13443	0.012817	-0.12161	-0.019226	-0.079651	-0.31876	-0.21103	-0.11108	-0.062866	-0.003052	0.41153	0.005951	0.001984	0.003204	0.061646	-0.002136	-0.081482	-0.046844	-0.003967	-0.008545
30.695	0.023193	0.26382	0.003815	0.000458	0.023804	0.046997	-0.23209	0.003052	-0.079041	-0.001221	0.024109	0.010681	-0.050354	0.10559	-0.13321	-0.001678	-0.084076	-0.22476	-0.11581	-0.010986	-0.065308	0.004578	0.37247	-0.013885	0.003204	0.003967	0.072479	-0.003662	-0.095215	-0.066833	0.008698	-0.018005
30.696	0.012665	0.23956	0.092926	-0.014496	0.057068	0.10269	-0.15686	0.000916	-0.028534	-0.025787	0.03067	0.000153	-0.2771	0.10941	0.10529	-0.005646	-0.067444	-0.11749	-0.13107	0.035553	-0.0737	-0.016937	0.3862	-0.038757	0.018921	0.005188	0.045166	-0.003662	-0.034332	-0.062256	-0.003204	-0.020142
30.697	-0.002289	0.19394	0.077972	-0.00351	-0.02655	0.10117	-0.1741	0.00351	0.039215	-0.033264	0.035553	0.01297	-0.55634	0.062103	0.22125	-0.010376	-0.073547	-0.076447	-0.18402	0.053406	-0.067139	-0.00412	0.40161	-0.039825	0.028381	0.010376	0.045929	-0.011749	0.023956	-0.078735	0	-0.011749
30.698	-0.010834	0.15305	-0.025482	0.000763	-0.069427	0.1033	-0.25436	0.011597	0.07843	0.00824	0.073853	0.010681	-0.92102	-0.036011	0.04303	0.004578	-0.074768	-0.016327	-0.21286	0.083923	-0.065155	-0.012054	0.47302	-0.032501	0.02182	0.007324	0.033112	-0.007629	0.06485	-0.078888	-0.000458	-0.009766
30.699	-0.002289	0.11765	-0.03479	0.00946	-0.062256	0.046997	-0.35919	0.008545	0.14252	-0.004883	0.065308	-0.012665	-0.30106	-0.14893	-0.006561	0.000916	-0.062103	0.080261	-0.23178	-0.00824	-0.075531	-0.032654	0.48263	-0.034637	0.007477	0.000916	0.043335	-0.002747	0.041962	-0.057068	-0.000305	-0.00824
30.7	-0.002136	0.18356	0.076294	0.003815	-0.059814	0.017242	-0.31982	-0.002899	0.14023	-0.021362	0.013733	-0.005493	0.22369	-0.16159	0.10696	-0.002899	-0.071259	0.098114	-0.13473	-0.082245	-0.067291	-0.045013	0.5191	-0.018311	0.015259	0.003967	0.053101	-0.003967	0.042114	-0.07431	-0.000458	-0.018616
30.701	-0.000916	0.22705	0.089874	-0.007477	0.041351	-0.002289	-0.31387	0.000305	0.11826	-0.032806	0.000916	-0.002594	0.77179	-0.088043	0.16235	0.002594	-0.082245	0.12146	-0.09964	0.004578	-0.065308	-0.032806	0.47379	-0.0177	0.024719	0.000916	0.040436	0.002136	0.041656	-0.054321	0.00061	-0.021362
30.702	0.005493	0.26337	0.1062	0.01236	0.1088	-0.064392	-0.33661	0.000153	0.099792	-0.003204	-0.045471	-0.009003	0.51224	0.12619	0.19913	-0.00412	-0.041199	0.072479	-0.1152	0.054932	-0.064545	-0.018768	0.49255	0.029602	0.035706	-0.000305	0.042572	-0.007019	0.017242	-0.071564	-0.000916	-0.017242
30.703	0.013885	0.30624	0.097809	0.003052	0.032654	0.023499	-0.35965	-0.001526	0.014954	0.035706	-0.007782	-0.007477	0.047302	0.19196	0.1474	-0.005341	0.001221	-0.019073	-0.40482	0.14526	-0.058594	-0.029602	0.48492	0.055084	0.038605	0.003662	0.069733	-0.000153	-0.069885	-0.057678	-0.002441	-0.020599
30.704	0.011749	0.40207	0.041504	0.007782	-0.079803	0.26321	-0.35416	-0.01236	-0.046692	0.027771	0.00351	-0.012817	-0.031586	0.075989	0.05661	0.001373	0.07019	-0.028992	-0.75455	0.16159	-0.062714	-0.011292	0.46677	0.072784	0.049438	0.003967	0.037689	-0.002594	0.011902	-0.041199	-0.003357	-0.019836
30.705	0.018768	0.51117	0.058289	0.016479	-0.053711	0.30502	-0.35233	-0.015564	-0.026093	0.0177	0.001221	-0.011292	-0.21896	0.034637	0.10834	-0.003815	0.12238	-0.011597	-0.53375	0.009918	-0.061951	-0.011292	0.45868	0.10788	0.060883	-0.001068	0.034485	-0.004883	0.033722	-0.074921	0.000153	-0.028687
30.706	0.012817	0.53909	0.082245	0.032654	0.011597	0.30624	-0.31433	0.021362	0.001221	-0.01358	-0.065918	-0.011292	-0.31555	0.022583	0.15152	-0.006714	0.11414	-0.074463	-0.41275	-0.013733	-0.081482	-0.013275	0.50232	0.16998	0.06073	0.006409	0.044861	-0.001984	0.001984	-0.091248	0.001831	-0.019836
30.707	0.01236	0.50278	0.082092	0.003815	0.031433	0.34271	-0.27603	0.024567	0.1442	-0.012054	-0.022125	-0.008698	0.17792	-0.10559	-0.008545	0.003204	0.10376	-0.1474	-0.44266	0.055237	-0.071259	0.004578	0.43976	0.12756	0.076447	0.004272	0.033112	0.001373	-0.032654	-0.11185	-0.002136	-0.027618
30.708	0.00885	0.43076	0.024261	-0.009918	0.037537	0.30243	-0.16693	0.014343	0.24689	-0.054169	-0.029907	-0.007782	0.41763	-0.22675	-0.10025	-0.005493	0.053406	-0.17838	-0.47287	0.039825	-0.070648	0.033569	0.42282	0.062103	0.070648	0.006866	0.055695	-0.001068	-0.062561	-0.11276	0.003815	-0.018463
30.709	0.007019	0.40329	-0.031433	0.000153	0.051575	0.26977	-0.088043	0.000305	0.27847	-0.042114	-0.039673	-0.015717	0.46936	-0.24551	-0.070801	-0.009003	0.024567	-0.2327	-0.4277	0.052948	-0.068512	0.010376	0.34958	0.04303	0.044098	0.002136	0.022278	0.001068	-0.00946	-0.092316	-0.003967	-0.024567
30.71	0.002441	0.36758	-0.10223	0.002289	0.086365	0.085297	-0.097504	0.010834	0.19043	0.018158	0.013885	-0.007172	0.48843	-0.10101	-0.09079	-0.027313	0.018005	-0.3273	-0.46249	0.018311	-0.068817	0.00473	0.38101	0.016632	0.055084	0.011139	0.038452	-0.002441	0.032501	-0.093842	-0.003357	-0.01297
30.711	0.007172	0.25269	-0.14618	0.010223	0.0737	-0.16663	-0.2063	0.009766	0.2533	0.014496	-0.020599	-0.011902	-0.17624	0.1062	-0.028992	-0.016327	-0.012054	-0.27588	-0.42328	0.001526	-0.071411	0.02182	0.4184	0.028839	0.037079	0.009003	0.22476	-0.000305	0.005341	-0.12878	-0.002594	-0.028992
30.712	0.018616	0.23209	-0.12756	0.007172	0.03891	-0.52292	-0.345	0.02243	0.23346	-0.012665	-0.11322	-0.012054	-0.2063	0.17914	-0.009613	-0.010834	0.007935	-0.22415	-0.49484	0.019836	-0.052032	0.016327	0.45212	0.038605	0.056915	0.007935	0.30792	-0.000458	0.011444	-0.11307	-0.001831	-0.012665
30.713	0.023041	0.20676	-0.13031	0.018005	0.03006	-0.3154	-0.27832	0.012665	0.016022	0.040131	-0.11032	-0.017242	0.4921	0.11826	-0.072479	-0.014343	-0.001831	-0.24979	-0.31448	0.014038	-0.049744	-0.031586	0.55862	0.028534	0.051575	0.003662	0.3157	-0.000458	0.047302	-0.093079	-0.000458	-0.013275
30.714	0.015564	0.18509	-0.072174	0.00351	0.03418	-0.20493	-0.112	-0.017242	-0.25253	0.068359	-0.052185	-0.017395	-0.11581	0.031891	-0.013733	-0.022888	-0.009918	-0.23132	-0.1799	-0.014343	-0.045776	-0.029907	0.72266	0.066986	0.05188	-0.000458	-0.15732	0.001221	0.12222	-0.078278	-0.001068	-0.010223
30.715	0.006256	0.11307	-0.11932	0.010529	0.012817	-0.12024	-0.12558	-0.037079	-0.13458	0.052643	0.035706	-0.021362	-0.80994	-0.003357	-0.024109	-0.009308	0.024109	-0.28519	-0.25833	-0.12589	-0.054321	0.003204	0.73822	0.067444	0.074463	0.00473	-0.81024	0.001984	0.10178	-0.089874	-0.003815	-0.018616
30.716	-0.00473	0.15793	-0.17532	0.003052	-0.043182	0.088196	-0.058136	-0.014343	-0.049133	0.011292	0.28534	-0.021515	-0.52734	-0.044403	0.37979	-0.007782	0.059052	-0.34119	-0.28458	-0.18692	-0.07019	0.013885	0.58807	0.075226	0.093079	0	-0.66666	-0.002441	0.042877	-0.11673	-0.001526	-0.016479
